<svg width="49" height="69" viewBox="0 0 49 69" fill="none" xmlns="http://www.w3.org/2000/svg">
<path d="M41.9995 0.00103418C45.8656 0.00161194 48.9994 3.08991 49 6.89988L49 37.9364C49.0035 41.7488 45.8686 44.8416 41.9995 44.8416L15.3104 44.8416C15.5501 45.3838 15.8208 45.9353 16.1583 46.492C18.5929 50.5179 23.3533 55.2029 38.5602 55.2029C47.6866 55.405 47.6866 68.7985 38.5602 69C19.97 69 8.98651 61.5925 4.11881 53.546C0.282554 47.2027 -0.0104063 40.9373 0.0375943 38.4956C-0.0256906 28.0177 0.0100578 17.4183 0.0100588 6.89884C0.0106427 3.08887 3.14444 0.000587304 7.01054 -3.67084e-06L41.9995 0.00103418ZM34.992 13.7981L14.0121 13.7981L14.0121 31.0379L34.992 31.0379L34.992 13.7981Z" fill="white"/>
</svg>
