<svg width="32" height="27" viewBox="0 0 32 27" fill="none" xmlns="http://www.w3.org/2000/svg">
<path d="M27.4857 13.1624L17.0805 2.75715C16.426 2.10271 16.426 1.05561 17.0805 0.466612C17.7349 -0.122385 18.782 -0.187829 19.371 0.466612L30.955 12.0506C31.6094 12.705 31.6094 13.7521 30.955 14.3411L18.8475 26.3828C18.5202 26.7101 18.1276 26.841 17.6695 26.841C17.2114 26.841 16.8187 26.7101 16.4915 26.3828C15.837 25.7284 15.837 24.6813 16.4915 24.0923L27.4857 13.1624Z" fill="#EF6010"/>
<path d="M1.6361 11.7871L19.306 11.7871C20.2222 11.7871 20.9421 12.507 20.9421 13.4232C20.9421 14.3394 20.2222 15.0593 19.306 15.0593L1.6361 15.0593C0.719885 15.0593 0 14.3394 0 13.4232C0 12.507 0.719885 11.7871 1.6361 11.7871Z" fill="#EF6010"/>
</svg>
