<svg width="16" height="18" viewBox="0 0 16 18" fill="none" xmlns="http://www.w3.org/2000/svg">
<path d="M5.34153 18H9.85085C12.7952 18 15.1911 15.6034 15.1911 12.6575C15.1911 11.4129 14.5939 9.96257 13.5943 8.77781L10.3529 4.93341L12.3806 1.11472C12.4391 1.00537 12.4288 0.872349 12.3549 0.772762C12.281 0.673748 12.1576 0.626822 12.0347 0.648636L9.0769 1.22594L7.81169 0.0829779C7.68957 -0.0276593 7.50316 -0.0276593 7.38033 0.0829779L6.11581 1.22594L3.15715 0.647938C3.0356 0.6267 2.91162 0.67305 2.837 0.772064C2.7631 0.871651 2.75349 1.00482 2.81132 1.11402L4.84024 4.93271L1.59757 8.77711C0.59725 9.96257 0 11.4135 0 12.6575C0.000573997 15.6034 2.39657 18 5.34175 18L5.34153 18ZM3.69573 1.40787L6.15027 1.88746C6.25058 1.90611 6.35218 1.87842 6.42737 1.81025L7.59546 0.754101L8.76425 1.81099C8.83944 1.87915 8.94362 1.90685 9.04134 1.88819L11.4952 1.40861L9.85199 4.50345C9.84683 4.50259 9.84238 4.49943 9.83649 4.49943H5.35546C5.34972 4.49943 5.34513 4.50259 5.33939 4.50331L3.69573 1.40787ZM2.08983 9.19256L5.50541 5.14243H9.68742L13.1024 9.19256C13.9941 10.2494 14.5483 11.5769 14.5483 12.6589C14.5483 15.2496 12.441 17.3578 9.85089 17.3578H5.34157C2.7514 17.3578 0.643429 15.2498 0.643429 12.6582C0.643429 11.5776 1.19763 10.2494 2.0899 9.19252L2.08983 9.19256Z" fill="black"/>
</svg>
